<mxfile host="app.diagrams.net" modified="2023-09-25T18:04:19.292Z" agent="Mozilla/5.0 (Windows NT 10.0; Win64; x64) AppleWebKit/537.36 (KHTML, like Gecko) Chrome/116.0.0.0 Safari/537.36" etag="Oer3jlk5AyxumfoUi0J4" version="21.8.2" type="github">
  <diagram name="Page-1" id="IuPxlGtBP7tdRbNHVU8b">
    <mxGraphModel dx="794" dy="536" grid="1" gridSize="10" guides="1" tooltips="1" connect="1" arrows="1" fold="1" page="1" pageScale="1" pageWidth="827" pageHeight="1169" math="0" shadow="0">
      <root>
        <mxCell id="0" />
        <mxCell id="1" parent="0" />
        <mxCell id="t7HWq3XmPDpqdUJPgYPU-1" value="CRUD" style="swimlane;fontStyle=1;align=center;verticalAlign=top;childLayout=stackLayout;horizontal=1;startSize=26;horizontalStack=0;resizeParent=1;resizeParentMax=0;resizeLast=0;collapsible=1;marginBottom=0;whiteSpace=wrap;html=1;" parent="1" vertex="1">
          <mxGeometry x="40" y="70" width="290" height="210" as="geometry" />
        </mxCell>
        <mxCell id="t7HWq3XmPDpqdUJPgYPU-2" value="- oPDO: PDO" style="text;strokeColor=none;fillColor=none;align=left;verticalAlign=top;spacingLeft=4;spacingRight=4;overflow=hidden;rotatable=0;points=[[0,0.5],[1,0.5]];portConstraint=eastwest;whiteSpace=wrap;html=1;" parent="t7HWq3XmPDpqdUJPgYPU-1" vertex="1">
          <mxGeometry y="26" width="290" height="26" as="geometry" />
        </mxCell>
        <mxCell id="t7HWq3XmPDpqdUJPgYPU-3" value="" style="line;strokeWidth=1;fillColor=none;align=left;verticalAlign=middle;spacingTop=-1;spacingLeft=3;spacingRight=3;rotatable=0;labelPosition=right;points=[];portConstraint=eastwest;strokeColor=inherit;" parent="t7HWq3XmPDpqdUJPgYPU-1" vertex="1">
          <mxGeometry y="52" width="290" height="8" as="geometry" />
        </mxCell>
        <mxCell id="t7HWq3XmPDpqdUJPgYPU-4" value="&amp;nbsp;+ getLampes(): array &lt;br&gt;&amp;nbsp;+ getLampeById(id: int): array&amp;nbsp;&lt;br&gt;&amp;nbsp;+ addLampe(lampe: array): int&amp;nbsp;&lt;br&gt;&amp;nbsp;+ updateLampeById(id: int, lampe: array): bool&amp;nbsp;&lt;br&gt;&amp;nbsp;+ deleteLampeById(id: int):&amp;nbsp;&lt;br&gt;&amp;nbsp;string " style="text;strokeColor=none;fillColor=none;align=left;verticalAlign=top;spacingLeft=4;spacingRight=4;overflow=hidden;rotatable=0;points=[[0,0.5],[1,0.5]];portConstraint=eastwest;whiteSpace=wrap;html=1;" parent="t7HWq3XmPDpqdUJPgYPU-1" vertex="1">
          <mxGeometry y="60" width="290" height="150" as="geometry" />
        </mxCell>
        <mxCell id="t7HWq3XmPDpqdUJPgYPU-5" value="Lampe" style="swimlane;fontStyle=1;align=center;verticalAlign=top;childLayout=stackLayout;horizontal=1;startSize=26;horizontalStack=0;resizeParent=1;resizeParentMax=0;resizeLast=0;collapsible=1;marginBottom=0;whiteSpace=wrap;html=1;" parent="1" vertex="1">
          <mxGeometry x="500" y="60" width="160" height="210" as="geometry" />
        </mxCell>
        <mxCell id="t7HWq3XmPDpqdUJPgYPU-6" value="&amp;nbsp;- crud: CRUD&amp;nbsp;&lt;br&gt;&amp;nbsp;- id: int&amp;nbsp;&lt;br&gt;&amp;nbsp;- brand: string&amp;nbsp;&lt;br&gt;&amp;nbsp;- type: string&amp;nbsp;&lt;br&gt;&amp;nbsp;- model: string&amp;nbsp;&lt;br&gt;&amp;nbsp;- price: string " style="text;strokeColor=none;fillColor=none;align=left;verticalAlign=top;spacingLeft=4;spacingRight=4;overflow=hidden;rotatable=0;points=[[0,0.5],[1,0.5]];portConstraint=eastwest;whiteSpace=wrap;html=1;" parent="t7HWq3XmPDpqdUJPgYPU-5" vertex="1">
          <mxGeometry y="26" width="160" height="104" as="geometry" />
        </mxCell>
        <mxCell id="t7HWq3XmPDpqdUJPgYPU-7" value="" style="line;strokeWidth=1;fillColor=none;align=left;verticalAlign=middle;spacingTop=-1;spacingLeft=3;spacingRight=3;rotatable=0;labelPosition=right;points=[];portConstraint=eastwest;strokeColor=inherit;" parent="t7HWq3XmPDpqdUJPgYPU-5" vertex="1">
          <mxGeometry y="130" width="160" height="8" as="geometry" />
        </mxCell>
        <mxCell id="t7HWq3XmPDpqdUJPgYPU-8" value="&amp;nbsp;+ createLampe(): int     |&lt;br&gt;&amp;nbsp;+ updateLampe(): bool&amp;nbsp;&lt;br&gt;&amp;nbsp;+ deleteLampe(): string " style="text;strokeColor=none;fillColor=none;align=left;verticalAlign=top;spacingLeft=4;spacingRight=4;overflow=hidden;rotatable=0;points=[[0,0.5],[1,0.5]];portConstraint=eastwest;whiteSpace=wrap;html=1;" parent="t7HWq3XmPDpqdUJPgYPU-5" vertex="1">
          <mxGeometry y="138" width="160" height="72" as="geometry" />
        </mxCell>
        <mxCell id="t7HWq3XmPDpqdUJPgYPU-9" value="" style="html=1;verticalAlign=bottom;labelBackgroundColor=none;endArrow=block;endFill=1;rounded=0;" parent="1" edge="1">
          <mxGeometry width="160" relative="1" as="geometry">
            <mxPoint x="333.5" y="200" as="sourcePoint" />
            <mxPoint x="493.5" y="200" as="targetPoint" />
          </mxGeometry>
        </mxCell>
      </root>
    </mxGraphModel>
  </diagram>
</mxfile>
